<svg width="100%" height="auto" viewBox="0 0 22 18" fill="none" xmlns="http://www.w3.org/2000/svg">
<path fill-rule="evenodd" clip-rule="evenodd" d="M12.4142 8.58579L18.5858 2.41421C19.4767 1.52331 18.8457 0 17.5858 0C17.2107 0 16.851 0.148997 16.5858 0.414214L12.4142 4.58579C11.6332 5.36683 10.3668 5.36684 9.58578 4.58579L5.41421 0.414214C5.14899 0.148997 4.78928 0 4.41421 0C3.15428 0 2.52331 1.52331 3.41421 2.41421L9.58578 8.58579C10.3668 9.36684 11.6332 9.36683 12.4142 8.58579ZM9.58578 16.5858L1.41421 8.41421C0.523306 7.52331 1.15428 6 2.41421 6C2.78928 6 3.14899 6.149 3.41421 6.41421L9.58578 12.5858C10.3668 13.3668 11.6332 13.3668 12.4142 12.5858L18.5858 6.41421C18.851 6.149 19.2107 6 19.5858 6C20.8457 6 21.4767 7.52331 20.5858 8.41421L12.4142 16.5858C11.6332 17.3668 10.3668 17.3668 9.58578 16.5858Z" fill="white"/>
</svg>
